<?xml version="1.0" standalone="no"?>
<!DOCTYPE svg PUBLIC "-//W3C//DTD SVG 20010904//EN"
 "http://www.w3.org/TR/2001/REC-SVG-20010904/DTD/svg10.dtd">
<svg version="1.0" xmlns="http://www.w3.org/2000/svg"
 width="260.000000pt" height="260.000000pt" viewBox="0 0 260.000000 260.000000"
 preserveAspectRatio="xMidYMid meet">
<metadata>
Created by potrace 1.11, written by Peter Selinger 2001-2013
</metadata>
<g transform="translate(0.000000,260.000000) scale(0.100000,-0.100000)"
fill="#000000" stroke="none">
<path d="M1790 1813 c0 -6 -14 -9 -34 -6 -19 2 -38 -1 -41 -7 -5 -8 -11 -7
-21 1 -11 9 -14 8 -14 -2 0 -11 -2 -11 -10 1 -6 10 -10 11 -10 3 0 -8 -13 -13
-30 -13 -16 0 -30 -5 -30 -11 0 -6 -6 -9 -13 -6 -8 3 -20 -3 -27 -14 -11 -15
-17 -16 -29 -6 -12 9 -13 9 -7 -1 8 -13 -17 -45 -28 -35 -6 6 -10 -13 -7 -31
1 -5 -6 -6 -15 -2 -12 4 -15 2 -10 -9 3 -8 1 -15 -5 -15 -6 0 -8 -4 -5 -9 3
-5 -1 -14 -9 -21 -12 -10 -13 -16 -4 -26 10 -12 6 -18 -12 -16 -8 1 -5 -31 5
-46 4 -6 3 -12 -1 -12 -11 0 -10 -57 1 -67 5 -5 6 -2 1 7 -5 8 -4 12 0 7 13
-11 15 -37 4 -37 -6 0 -7 -5 -4 -10 4 -6 11 -7 17 -4 7 5 9 1 5 -9 -3 -9 -2
-19 4 -22 5 -4 7 -11 4 -16 -4 -5 2 -6 11 -2 14 5 16 3 11 -11 -5 -11 -3 -15
5 -10 7 5 9 2 5 -9 -4 -12 -2 -14 10 -10 11 4 14 2 9 -5 -5 -8 -1 -10 10 -5
13 5 15 3 9 -7 -6 -10 -4 -12 8 -7 9 3 16 3 16 -1 -3 -19 2 -23 15 -13 10 9
16 8 26 -4 7 -8 17 -12 24 -8 6 4 4 -2 -4 -12 -14 -17 -14 -18 8 -6 12 6 22 8
22 3 0 -5 14 -8 30 -7 22 2 28 -1 21 -9 -7 -8 1 -11 27 -10 21 1 40 -4 44 -10
5 -7 8 -6 8 4 0 11 2 12 8 3 5 -7 20 -14 35 -15 15 -1 27 -6 27 -11 0 -4 4 -6
10 -2 5 3 24 -8 42 -26 18 -17 27 -28 21 -24 -7 3 -13 1 -13 -4 0 -6 5 -11 10
-11 6 0 10 -12 10 -26 0 -17 -4 -23 -12 -18 -10 5 -10 4 -1 -6 8 -9 7 -16 -5
-31 -8 -10 -19 -16 -24 -13 -5 3 -8 2 -7 -3 3 -20 -2 -27 -11 -13 -8 13 -10
13 -10 -1 0 -10 -8 -15 -22 -14 -13 1 -27 -3 -31 -9 -6 -8 -10 -7 -14 1 -3 9
-10 10 -24 3 -14 -8 -19 -7 -19 2 0 9 -3 9 -11 1 -9 -9 -18 -7 -38 5 -25 16
-25 16 -12 -1 12 -16 12 -17 -5 -11 -10 4 -24 11 -30 15 -6 5 -14 6 -17 3 -3
-3 -20 4 -38 17 -28 20 -32 21 -26 5 6 -15 5 -17 -6 -8 -8 7 -18 8 -22 4 -5
-4 -5 -2 -2 4 4 7 -1 18 -10 25 -14 12 -16 12 -8 -1 6 -12 5 -13 -6 -2 -7 6
-21 12 -31 12 -10 0 -18 4 -18 9 0 5 -7 12 -16 15 -8 3 -13 2 -9 -3 3 -5 -1
-12 -7 -14 -10 -4 -10 -6 0 -6 6 -1 12 -6 12 -12 0 -5 -5 -7 -11 -3 -7 4 -7
-1 1 -16 7 -13 8 -20 2 -16 -6 4 -10 -2 -9 -14 1 -11 5 -20 10 -20 5 0 3 -8
-4 -17 -12 -15 -12 -16 1 -8 13 8 13 7 1 -8 -11 -14 -11 -17 0 -17 9 0 10 -3
4 -8 -16 -11 -12 -37 5 -37 8 -1 14 -7 12 -13 -2 -10 3 -10 18 -2 12 7 20 7
20 1 0 -5 8 -10 18 -10 37 -1 52 -5 52 -12 0 -4 9 -6 20 -4 11 2 20 0 20 -6 0
-5 5 -9 11 -9 5 0 7 4 4 10 -3 6 1 7 9 4 9 -3 13 -11 9 -17 -4 -6 -1 -7 8 -1
19 11 39 14 39 5 0 -4 13 -8 30 -8 18 0 27 4 23 11 -4 6 1 5 11 -3 15 -13 19
-13 27 0 5 8 9 9 9 3 0 -6 15 -10 38 -8 20 1 37 3 37 4 0 2 24 5 75 11 19 2
38 7 41 12 3 4 16 9 27 10 12 1 22 5 22 10 0 4 15 14 33 22 17 8 25 15 17 15
-9 1 -6 5 8 10 12 5 22 16 22 25 0 8 5 15 11 15 5 0 7 5 4 10 -3 6 -1 10 5 10
6 0 8 5 5 10 -3 6 -2 10 4 10 5 0 8 11 6 25 -1 14 1 25 6 25 5 0 5 7 2 17 -5
12 -3 14 8 8 12 -7 12 -6 1 7 -7 9 -9 19 -4 22 10 6 9 42 -1 52 -12 12 -8 26
6 18 10 -6 10 -4 0 7 -7 7 -13 23 -13 36 0 13 -4 23 -10 23 -5 0 -10 9 -10 20
0 11 -5 20 -11 20 -5 0 -7 5 -4 10 3 6 1 10 -5 10 -16 0 -40 26 -32 35 4 4 2
6 -3 4 -12 -3 -65 22 -65 31 0 4 -7 7 -15 8 -8 1 -22 3 -30 4 -8 1 -15 5 -15
10 0 5 -8 8 -17 6 -10 -2 -24 3 -31 12 -8 8 -11 9 -7 3 4 -8 0 -13 -9 -13 -9
0 -16 5 -16 11 0 6 -8 8 -19 4 -10 -3 -24 1 -31 10 -10 12 -16 13 -26 4 -11
-9 -14 -8 -14 1 0 8 -3 10 -7 7 -3 -4 -13 -1 -21 6 -13 9 -14 9 -8 0 4 -7 3
-13 -3 -13 -5 0 -15 8 -20 18 -7 11 -11 12 -11 4 0 -10 -4 -9 -16 2 -8 9 -20
13 -26 10 -6 -4 -8 -2 -5 3 4 6 1 13 -6 16 -20 8 -9 64 19 92 12 12 25 20 28
17 3 -3 6 0 6 6 0 7 5 12 11 12 5 0 7 -6 4 -12 -4 -7 1 -4 9 6 10 13 16 15 16
7 0 -11 3 -11 17 0 13 11 17 11 21 1 3 -9 8 -10 16 -3 13 11 34 10 55 -3 11
-7 12 -6 6 5 -8 12 -6 12 8 0 14 -11 17 -11 17 0 0 8 6 6 16 -7 8 -10 12 -13
8 -5 -6 11 -3 13 12 6 10 -5 29 -9 42 -9 12 -1 22 -8 23 -16 0 -9 3 -10 5 -4
6 15 44 6 44 -10 0 -6 5 -4 10 4 7 11 10 11 10 2 0 -14 31 -13 42 2 3 5 2 20
-3 34 -6 16 -6 29 1 37 8 9 7 14 -1 17 -9 3 -9 9 -1 24 7 14 7 26 -3 43 -9 18
-14 20 -18 10 -3 -9 -6 -10 -6 -2 -1 7 -8 10 -18 6 -11 -4 -14 -3 -9 5 4 7 2
12 -3 12 -6 0 -11 -5 -11 -12 0 -6 -8 -4 -19 6 -15 14 -20 14 -25 4 -4 -10 -7
-10 -12 -1 -3 7 -12 9 -20 6 -8 -3 -14 0 -14 7 0 6 -5 8 -10 5 -6 -4 -8 -12
-4 -18 3 -7 -1 -4 -9 6 -16 20 -32 23 -21 5 6 -10 4 -10 -7 0 -7 6 -17 12 -22
12 -4 0 -5 -6 -1 -12 6 -9 3 -9 -9 1 -9 7 -23 11 -31 8 -7 -3 -19 0 -25 6 -7
7 -11 8 -11 0z"/>
<path d="M423 1795 c4 -5 -3 -19 -15 -33 -16 -16 -18 -23 -8 -20 10 2 14 -3
12 -16 -2 -13 1 -16 10 -10 10 6 11 5 1 -7 -12 -15 -12 -36 0 -56 4 -6 2 -15
-4 -19 -8 -5 -9 -3 -4 6 6 9 4 11 -4 5 -9 -5 -9 -11 -3 -17 6 -6 8 -17 5 -26
-5 -11 -3 -13 8 -7 11 7 12 6 3 -6 -6 -8 -11 -30 -12 -49 -2 -26 0 -31 8 -20
6 9 10 10 10 3 0 -6 -5 -15 -11 -19 -6 -3 -9 -14 -6 -24 2 -9 0 -26 -6 -36
-10 -17 -9 -18 8 -4 17 14 17 13 8 -5 -6 -11 -8 -26 -5 -34 3 -8 0 -11 -7 -7
-7 5 -9 1 -5 -8 3 -9 11 -13 18 -9 6 4 5 -1 -3 -10 -9 -12 -10 -17 -2 -17 7 0
9 -5 6 -10 -4 -6 -11 -8 -16 -5 -5 3 -6 -1 -3 -9 3 -9 11 -13 18 -9 7 5 7 2
-1 -8 -13 -16 -12 -36 1 -58 7 -10 6 -12 -4 -6 -8 5 -11 3 -8 -6 3 -8 1 -23
-5 -34 -9 -18 -9 -19 8 -5 17 14 17 13 8 -5 -6 -11 -8 -26 -5 -34 3 -9 0 -11
-9 -6 -11 6 -11 5 -2 -5 6 -7 9 -19 6 -28 -5 -11 -3 -13 8 -7 11 7 12 6 3 -6
-6 -8 -11 -30 -12 -49 -2 -26 0 -31 8 -20 5 8 10 11 10 7 0 -4 -7 -18 -15 -31
-14 -21 -14 -24 1 -30 13 -5 14 -9 5 -20 -9 -11 -9 -15 1 -19 7 -3 4 -6 -7 -6
-17 -1 -17 -3 -5 -11 8 -5 11 -10 5 -10 -5 0 -3 -5 5 -10 11 -7 12 -10 2 -10
-11 0 -11 -3 0 -14 10 -9 33 -13 71 -11 36 1 54 -1 50 -8 -4 -6 -1 -7 7 -2 21
13 81 15 73 2 -4 -6 -1 -7 7 -2 22 14 81 15 73 1 -3 -7 -1 -6 8 1 17 17 42 17
34 1 -4 -7 0 -5 8 5 9 11 16 14 19 7 2 -8 11 -8 31 -1 16 6 26 8 24 3 -3 -4
10 -7 28 -7 22 0 30 4 25 10 -6 7 5 9 32 7 32 -4 39 -2 32 9 -7 12 -5 12 9 0
15 -12 20 -9 19 9 0 3 12 5 26 4 39 -2 57 6 40 18 -9 6 -6 8 12 6 17 -2 25 2
25 12 0 10 8 14 24 12 15 -2 21 0 17 7 -7 10 6 16 27 12 5 -1 5 4 1 10 -5 9 0
10 17 6 22 -5 22 -5 6 7 -16 12 -16 14 -1 20 9 3 20 4 25 1 5 -4 6 1 3 9 -4 9
1 18 10 22 9 3 14 10 11 14 -8 12 6 41 16 34 5 -3 9 2 9 11 0 9 4 14 9 11 4
-3 6 6 3 19 -2 14 0 25 6 25 6 0 9 9 7 20 -2 11 0 20 5 20 4 0 11 7 14 16 5
12 2 15 -11 10 -16 -6 -15 -5 1 13 11 12 14 21 6 26 -5 3 -7 12 -3 18 12 20
12 41 0 56 -10 12 -9 13 1 7 16 -10 13 25 -3 36 -6 5 -4 8 5 8 11 1 10 4 -4
15 -19 14 -19 15 -1 15 18 0 18 1 -1 16 -10 8 -12 12 -4 8 13 -7 13 -5 2 9 -8
9 -11 21 -7 27 3 5 1 10 -6 10 -7 0 -9 10 -7 24 4 18 1 23 -10 18 -10 -3 -13
-1 -8 6 3 6 -2 15 -11 21 -14 8 -15 11 -3 11 9 0 5 6 -10 15 -15 9 -19 14 -10
15 8 0 0 9 -17 20 -18 11 -33 22 -33 25 0 4 5 3 12 -1 7 -4 8 -3 4 4 -4 7 -14
12 -22 12 -8 0 -14 5 -14 10 0 6 -7 10 -16 10 -8 0 -12 5 -9 10 3 6 0 10 -7
10 -19 0 -68 23 -68 33 0 4 -11 7 -25 7 -14 0 -25 6 -25 13 0 9 -2 9 -9 -1 -7
-11 -9 -11 -14 1 -4 10 -14 13 -31 10 -14 -3 -33 0 -41 7 -8 7 -15 8 -15 3 0
-5 -7 -10 -15 -10 -8 0 -12 4 -9 9 7 11 -3 10 -26 -2 -13 -7 -21 -7 -25 0 -3
5 -17 10 -31 10 -18 0 -23 -4 -18 -12 6 -10 4 -10 -7 -2 -9 7 -65 11 -155 11
-77 0 -147 3 -155 8 -8 4 -11 4 -6 0z m7 -35 c0 -5 -5 -10 -11 -10 -5 0 -7 5
-4 10 3 6 8 10 11 10 2 0 4 -4 4 -10z m262 -165 c5 -7 8 -7 8 0 0 14 50 15 50
1 0 -6 5 -4 10 4 9 13 10 13 10 0 0 -12 2 -12 9 -1 6 9 10 10 16 2 5 -9 10 -9
21 0 17 14 19 -2 2 -21 -7 -8 -3 -6 10 4 15 14 22 15 22 6 0 -7 3 -10 7 -7 3
4 17 0 31 -9 13 -9 21 -11 18 -5 -12 19 2 12 28 -14 14 -14 30 -25 37 -25 6 0
8 -7 5 -17 -4 -10 -4 -14 0 -10 4 4 18 -7 30 -25 19 -26 21 -34 11 -47 -9 -12
-9 -13 1 -7 8 5 12 -2 13 -26 1 -18 1 -39 0 -47 -2 -8 2 -10 11 -5 10 6 10 5
2 -7 -6 -8 -10 -26 -9 -41 1 -16 -2 -28 -8 -28 -5 0 -3 -8 4 -17 10 -11 10
-14 2 -9 -12 7 -14 3 -17 -32 -1 -7 -8 -17 -16 -22 -13 -8 -13 -10 0 -10 9 0
7 -6 -8 -16 -13 -9 -21 -22 -18 -30 3 -8 0 -11 -10 -7 -7 3 -14 1 -14 -4 0 -5
-14 -17 -31 -27 -22 -13 -29 -14 -24 -5 5 8 -1 6 -13 -4 -11 -11 -25 -16 -30
-13 -5 3 -15 -1 -22 -9 -7 -8 -17 -12 -23 -8 -15 9 -47 11 -42 3 2 -4 -9 -7
-25 -6 -17 1 -30 4 -30 8 0 4 -12 3 -26 -2 -16 -7 -23 -7 -19 0 3 6 2 10 -3
10 -14 0 -21 49 -9 57 6 4 7 1 2 -7 -6 -9 -4 -11 4 -6 9 6 8 13 -6 29 -10 11
-12 17 -5 13 13 -8 13 19 -1 42 -5 7 -2 14 8 18 14 6 14 8 -2 21 -17 14 -17
14 0 9 13 -4 16 -2 10 7 -12 20 -13 40 0 56 8 10 8 13 1 8 -7 -4 -14 3 -17 18
-2 14 0 28 6 32 6 4 7 1 2 -7 -6 -9 -4 -11 4 -6 9 6 8 13 -6 29 -10 11 -12 17
-5 13 13 -8 13 19 -1 42 -5 7 -2 14 8 18 14 6 14 8 -2 21 -17 14 -17 14 0 9
13 -4 16 -2 10 7 -12 20 -13 40 0 56 8 10 8 13 1 8 -7 -4 -15 0 -18 9 -3 8 -2
12 3 9 5 -3 12 -1 16 5 3 5 1 10 -5 10 -6 0 -8 4 -5 10 7 12 27 9 37 -5z"/>
<path d="M816 1073 c-6 -14 -5 -15 5 -6 7 7 10 15 7 18 -3 3 -9 -2 -12 -12z"/>
</g>
</svg>
